<svg xmlns="http://www.w3.org/2000/svg" width="512" height="512" viewBox="0 0 512 512" role="img" aria-labelledby="title desc">
  <title id="title">Deep Performance</title>
  <desc id="desc">Logo rond violet Deep Performance avec monogramme DP</desc>
  <defs>
    <path id="topText" d="M83 256a173 173 0 0 1 346 0"/>
    <path id="bottomText" d="M429 256a173 173 0 0 1-346 0"/>
  </defs>
  <circle cx="256" cy="256" r="246" fill="#4b4b4b"/>
  <circle cx="256" cy="256" r="239" fill="#5b168a"/>
  <circle cx="256" cy="256" r="232" fill="#62129b"/>
  <circle cx="256" cy="256" r="169" fill="none" stroke="#d7c4e5" stroke-width="13"/>
  <text fill="#d9c5e8" font-family="Arial, Helvetica, sans-serif" font-size="34" font-weight="500" letter-spacing="12">
    <textPath href="#topText" startOffset="50%" text-anchor="middle">DEEP PERFORMANCE</textPath>
  </text>
  <text fill="#d9c5e8" font-family="Arial, Helvetica, sans-serif" font-size="34" font-weight="500" letter-spacing="12">
    <textPath href="#bottomText" startOffset="50%" text-anchor="middle">DEEP PERFORMANCE</textPath>
  </text>
  <g fill="#dcc8eb">
    <path d="M173 204c-45 0-76 31-76 75s31 75 76 75c28 0 49-12 62-31l-43-24c-5 8-12 13-22 13-18 0-30-14-30-33s12-33 30-33c11 0 19 5 24 14l43-25c-13-19-35-31-64-31Z"/>
    <path d="M196 150h49v201h-49V150Z"/>
    <path d="M239 224c15-14 36-21 62-21 53 0 90 31 90 75s-37 75-90 75c-25 0-46-7-61-20v-59c10 22 28 36 55 36 30 0 49-13 49-32s-19-32-49-32c-27 0-45 14-56 36v-58Z"/>
    <path d="M271 205h49v158h-49V205Z"/>
  </g>
</svg>
